<svg width="17" height="16" viewBox="0 0 17 16" fill="none" xmlns="http://www.w3.org/2000/svg">
<path d="M8.81441 3.8978C6.54283 3.8978 4.71056 5.72933 4.71056 8C4.71056 10.2707 6.54283 12.1022 8.81441 12.1022C11.086 12.1022 12.9183 10.2707 12.9183 8C12.9183 5.72933 11.086 3.8978 8.81441 3.8978ZM8.81441 10.667C7.34645 10.667 6.14637 9.47094 6.14637 8C6.14637 6.52906 7.34288 5.33304 8.81441 5.33304C10.2859 5.33304 11.4824 6.52906 11.4824 8C11.4824 9.47094 10.2824 10.667 8.81441 10.667ZM14.0433 3.73C14.0433 4.26197 13.6147 4.68682 13.0861 4.68682C12.5539 4.68682 12.1289 4.2584 12.1289 3.73C12.1289 3.20161 12.5575 2.77318 13.0861 2.77318C13.6147 2.77318 14.0433 3.20161 14.0433 3.73ZM16.7614 4.7011C16.7007 3.41939 16.4078 2.28406 15.4684 1.34866C14.5327 0.413254 13.3969 0.120495 12.1146 0.0562312C10.7931 -0.0187437 6.83213 -0.0187437 5.51061 0.0562312C4.23196 0.116925 3.09616 0.409684 2.15682 1.34509C1.21747 2.28049 0.928161 3.41582 0.863871 4.69753C0.788866 6.01852 0.788866 9.97791 0.863871 11.2989C0.924589 12.5806 1.21747 13.7159 2.15682 14.6513C3.09616 15.5867 4.22838 15.8795 5.51061 15.9438C6.83213 16.0187 10.7931 16.0187 12.1146 15.9438C13.3969 15.8831 14.5327 15.5903 15.4684 14.6513C16.4042 13.7159 16.6971 12.5806 16.7614 11.2989C16.8364 9.97791 16.8364 6.02209 16.7614 4.7011ZM15.0541 12.7163C14.7755 13.416 14.2362 13.9551 13.5326 14.2372C12.4789 14.6549 9.97877 14.5585 8.81441 14.5585C7.65004 14.5585 5.1463 14.6513 4.09623 14.2372C3.39618 13.9587 2.85686 13.4196 2.5747 12.7163C2.15682 11.6631 2.25325 9.1639 2.25325 8C2.25325 6.8361 2.16039 4.33337 2.5747 3.28372C2.85329 2.58396 3.39261 2.04485 4.09623 1.7628C5.14987 1.34509 7.65004 1.44148 8.81441 1.44148C9.97877 1.44148 12.4825 1.34866 13.5326 1.7628C14.2326 2.04128 14.772 2.58039 15.0541 3.28372C15.472 4.33694 15.3756 6.8361 15.3756 8C15.3756 9.1639 15.472 11.6666 15.0541 12.7163Z" fill="white"/>
</svg>
