<svg width="20" height="16" viewBox="0 0 20 16" fill="none" xmlns="http://www.w3.org/2000/svg">
<path fill-rule="evenodd" clip-rule="evenodd" d="M9.68172 4.65914L9.64206 4.0075C9.52319 2.31866 10.5666 0.776073 12.2176 0.177712C12.8251 -0.0350808 13.8553 -0.0616799 14.5289 0.124513C14.793 0.204311 15.2949 0.470223 15.6515 0.709614L16.2987 1.14846L17.0118 0.922407C17.4081 0.802672 17.9364 0.603218 18.1741 0.470223C18.3986 0.350566 18.5968 0.284029 18.5968 0.323967C18.5968 0.55002 18.1081 1.32131 17.6987 1.74682C17.1439 2.34526 17.3025 2.39846 18.4251 1.99947C19.0987 1.77342 19.1118 1.77342 18.9798 2.02607C18.9005 2.15907 18.4911 2.62451 18.0552 3.05002C17.3156 3.78145 17.276 3.86125 17.276 4.47295C17.276 5.4171 16.827 7.38519 16.3779 8.46233C15.5458 10.4836 13.7628 12.5714 11.9798 13.6219C9.47039 15.0981 6.12884 15.4704 3.31566 14.606C2.37794 14.3134 0.766602 13.5687 0.766602 13.4358C0.766602 13.3959 1.25525 13.3427 1.84964 13.3294C3.09113 13.3028 4.33262 12.957 5.38922 12.3453L6.10248 11.9198L5.28356 11.6406C4.12129 11.2416 3.07791 10.324 2.8138 9.45968C2.73449 9.18043 2.76093 9.16709 3.50055 9.16709L4.26661 9.15383L3.61943 8.84798C2.85337 8.46233 2.1534 7.8107 1.80999 7.1458C1.55901 6.6671 1.24211 5.45696 1.33455 5.3639C1.36091 5.32404 1.63832 5.40376 1.9553 5.51015C2.86659 5.8426 2.98547 5.76281 2.45717 5.2043C1.46657 4.1937 1.16281 2.69097 1.63832 1.26812L1.86286 0.629816L2.73449 1.49417C4.51758 3.23621 6.61757 4.27349 9.02132 4.57934L9.68172 4.65914Z" fill="white"/>
</svg>
